<?xml version="1.0" encoding="UTF-8"?>
<svg class="instagram" width="26px" height="26px" viewBox="0 0 26 26" version="1.1" xmlns="http://www.w3.org/2000/svg" xmlns:xlink="http://www.w3.org/1999/xlink">
    <!-- Generator: sketchtool 55.1 (78136) - https://sketchapp.com -->
    <style>
        .instagram {
            cursor: pointer;
        }

        .instagram:hover .insta-icon {
            fill: #f93f2d;
        }

    </style>
    

    <title>5ADE2E07-A764-41D9-8615-02E94C97438B-color</title>
    <desc>Created with sketchtool.</desc>
    <g id="all" stroke="none" stroke-width="1" fill="none" fill-rule="evenodd">
        <g class="insta-icon" id="Bokmal_home-page_for-all_V2" transform="translate(-674.000000, -3397.000000)" fill="#2B292D">
            <g id="footer" transform="translate(0.000000, 3317.000000)">
                <g id="social">
                    <g transform="translate(561.489982, 32.000000)">
                        <g id="social_icons" transform="translate(0.000000, 48.000000)">
                            <path d="M125.714802,1 C129.049022,1 129.467109,1.01413365 130.776585,1.07388486 C132.083333,1.13348986 132.975795,1.34105954 133.756705,1.6445918 C134.564029,1.95831004 135.24869,2.37812811 135.931255,3.06068581 C136.613772,3.74329225 137.033565,4.42799437 137.347313,5.2353668 C137.650778,6.01632393 137.858335,6.90883941 137.917937,8.2156657 C137.977684,9.52522125 137.991817,9.94333353 137.991817,13.2778021 C137.991817,16.612222 137.977684,17.0303343 137.917937,18.3398899 C137.858335,19.6467161 137.650778,20.5392316 137.347313,21.3201888 C137.033565,22.1275612 136.613772,22.8122633 135.931255,23.4948697 C135.24869,24.1774274 134.564029,24.5972455 133.756705,24.9110125 C132.975795,25.214496 132.083333,25.4220657 130.776585,25.4816707 C129.467109,25.5414219 129.049022,25.5555556 125.714802,25.5555556 C122.380534,25.5555556 121.962447,25.5414219 120.65297,25.4816707 C119.346223,25.4220657 118.453761,25.214496 117.672851,24.9110125 C116.865527,24.5972455 116.180866,24.1774274 115.498301,23.4948697 C114.815784,22.8122633 114.395991,22.1275612 114.082292,21.3201888 C113.778778,20.5392316 113.571221,19.6467161 113.511619,18.3398899 C113.451872,17.0303343 113.437739,16.612222 113.437739,13.2778021 C113.437739,9.94333353 113.451872,9.52522125 113.511619,8.2156657 C113.571221,6.90883941 113.778778,6.01632393 114.082292,5.2353668 C114.395991,4.42799437 114.815784,3.74329225 115.498301,3.06068581 C116.180866,2.37812811 116.865527,1.95831004 117.672851,1.6445918 C118.453761,1.34105954 119.346223,1.13348986 120.65297,1.07388486 C121.962447,1.01413365 122.380534,1 125.714802,1 Z M125.714802,3.21220826 C122.436676,3.21220826 122.048365,3.2247336 120.753801,3.2838025 C119.556801,3.33838762 118.906741,3.5384031 118.474132,3.70654477 C117.901071,3.92927156 117.492097,4.19532529 117.062509,4.62498817 C116.632872,5.05460232 116.366834,5.46360084 116.144121,6.03669588 C115.975989,6.4693317 115.775986,7.11943076 115.721404,8.31650197 C115.662339,9.61114408 115.649814,9.99947823 115.649814,13.2778021 C115.649814,16.5560773 115.662339,16.9444115 115.721404,18.2390536 C115.775986,19.4361248 115.975989,20.0862239 116.144121,20.5188597 C116.366834,21.0919547 116.632921,21.5009532 117.062509,21.9305674 C117.492097,22.3602303 117.901071,22.626284 118.474132,22.8490108 C118.906741,23.0171525 119.556801,23.2171679 120.753801,23.2717531 C122.048219,23.330822 122.436432,23.3433473 125.714802,23.3433473 C128.993124,23.3433473 129.381386,23.330822 130.675755,23.2717531 C131.872754,23.2171679 132.522814,23.0171525 132.955424,22.8490108 C133.528485,22.626284 133.937459,22.3602303 134.367047,21.9305674 C134.796684,21.5009532 135.062722,21.0919547 135.285435,20.5188597 C135.453567,20.0862239 135.65357,19.4361248 135.708152,18.2390536 C135.767217,16.9444115 135.779742,16.5560773 135.779742,13.2778021 C135.779742,9.99947823 135.767217,9.61114408 135.708152,8.31650197 C135.65357,7.11943076 135.453567,6.4693317 135.285435,6.03669588 C135.062722,5.46360084 134.796684,5.05460232 134.367047,4.62498817 C133.937459,4.19532529 133.528485,3.92927156 132.955424,3.70654477 C132.522814,3.5384031 131.872754,3.33838762 130.675755,3.2838025 C129.381191,3.2247336 128.99288,3.21220826 125.714802,3.21220826 Z M125.714802,6.97297692 C129.196636,6.97297692 132.019199,9.79571002 132.019199,13.2778021 C132.019199,16.7598455 129.196636,19.5825786 125.714802,19.5825786 C122.23292,19.5825786 119.410356,16.7598455 119.410356,13.2778021 C119.410356,9.79571002 122.23292,6.97297692 125.714802,6.97297692 Z M125.714802,17.3703704 C127.974929,17.3703704 129.807124,15.5380648 129.807124,13.2778021 C129.807124,11.0174907 127.974929,9.18518519 125.714802,9.18518519 C123.454627,9.18518519 121.622432,11.0174907 121.622432,13.2778021 C121.622432,15.5380648 123.454627,17.3703704 125.714802,17.3703704 Z M133.741549,6.72388357 C133.741549,7.53759178 133.081937,8.19719449 132.268278,8.19719449 C131.454667,8.19719449 130.795055,7.53759178 130.795055,6.72388357 C130.795055,5.91017537 131.454667,5.25052392 132.268278,5.25052392 C133.081937,5.25052392 133.741549,5.91017537 133.741549,6.72388357 Z" id="Instagram"></path>
                        </g>
                    </g>
                </g>
            </g>
        </g>
    </g>
</svg>