<?xml version="1.0" encoding="UTF-8"?>
<svg width="27px" height="23px" viewBox="0 0 27 23" version="1.1" xmlns="http://www.w3.org/2000/svg" xmlns:xlink="http://www.w3.org/1999/xlink">
    <!-- Generator: sketchtool 55.1 (78136) - https://sketchapp.com -->
    <title>29128022-3BC4-4529-902A-C759D6CEAC73</title>
    <desc>Created with sketchtool.</desc>
    <g id="all" stroke="none" stroke-width="1" fill="none" fill-rule="evenodd">
        <g id="Bookmol_style-guide-–-heder&amp;menu&amp;elements" transform="translate(-337.000000, -1758.000000)">
            <rect fill="none" x="0" y="0" width="1366" height="2290"></rect>
            <g id="show-more-hover" transform="translate(331.000000, 1753.000000)" stroke="#2B292D" stroke-linecap="round" stroke-linejoin="round" stroke-width="2">
                <g id="rotate-ccw">
                    <g transform="translate(18.000000, 17.500000) rotate(-255.000000) translate(-18.000000, -17.500000) translate(4.000000, 3.000000)">
                        <g transform="translate(14.000000, 14.500000) scale(-1, 1) rotate(44.000000) translate(-14.000000, -14.500000) translate(4.000000, 5.000000)" id="Shape">
                            <polyline points="0 1 0 7 6 7"></polyline>
                            <path d="M4.09814016,14.7882402 C5.88666102,16.9227941 8.61445458,18.1614517 11.5157152,17.9944702 C15.5175912,17.764143 18.8847697,14.9149336 19.7742205,11.0063611 C20.6636713,7.09778853 18.8609726,3.07210066 15.3528343,1.13276378 C11.844696,-0.806573096 7.47683228,-0.192038964 4.64,2.64 L0,7"></path>
                        </g>
                    </g>
                </g>
            </g>
        </g>
    </g>
</svg>