<?xml version="1.0" encoding="UTF-8"?>
<svg class="twitter" width="26px" height="23px" viewBox="0 0 26 23" version="1.1" xmlns="http://www.w3.org/2000/svg" xmlns:xlink="http://www.w3.org/1999/xlink">
    <!-- Generator: sketchtool 55.1 (78136) - https://sketchapp.com -->
    <style>
        
        .twitter {
            cursor: pointer;
        }

        .twitter:hover .twit-icon {
            fill: #00aaec;
        }


    </style>

    <title>C58219EF-0B76-4720-9F20-1467E112B33E-color</title>
    <desc>Created with sketchtool.</desc>
    <g id="all" stroke="none" stroke-width="1" fill="none" fill-rule="evenodd">
        <g class="twit-icon" id="Bokmal_home-page_for-all_V2" transform="translate(-617.000000, -3400.000000)" fill="#2B292D">
            <g id="footer" transform="translate(0.000000, 3317.000000)">
                <g id="social">
                    <g transform="translate(561.489982, 32.000000)">
                        <g id="social_icons" transform="translate(0.000000, 48.000000)">
                            <path d="M81.3285599,6.40485534 C80.3916555,6.84102564 79.3829118,7.13598973 78.3247787,7.26778219 C79.4053616,6.58999238 80.234507,5.51525621 80.6251333,4.23498656 C79.6133963,4.86256972 78.495397,5.31913647 77.3010685,5.5638939 C76.3491976,4.49857149 74.9887406,3.83333333 73.4831084,3.83333333 C70.596066,3.83333333 68.2538052,6.28875246 68.2538052,9.31684122 C68.2538052,9.74673568 68.2987047,10.1640785 68.3885039,10.5657317 C64.0407289,10.3366639 60.1868491,8.15581237 57.6051239,4.83432848 C57.1546315,5.64704867 56.8972073,6.58999238 56.8972073,7.59412544 C56.8972073,9.49570242 57.8206418,11.1744874 59.2245017,12.158224 C58.3684165,12.1315517 57.5602243,11.8820874 56.8538044,11.4741583 L56.8538044,11.5416235 C56.8538044,14.1994382 58.6572704,16.4163757 61.0519142,16.9184423 C60.613395,17.0470968 60.1509295,17.1114241 59.6734974,17.1114241 C59.3367506,17.1114241 59.0074871,17.078476 58.6887001,17.0141487 C59.3547104,19.1918623 61.2853919,20.7780787 63.57527,20.8204406 C61.7852738,22.2921231 59.5283221,23.1691706 57.0783022,23.1691706 C56.6562463,23.1691706 56.2386803,23.1440673 55.8300942,23.0938606 C58.1454153,24.6471289 60.8962623,25.5555556 63.8491574,25.5555556 C73.4726318,25.5555556 78.7333647,17.2008547 78.7333647,9.95383813 C78.7333647,9.71535653 78.7288748,9.47687492 78.7198949,9.2431002 C79.7421084,8.46960395 80.6296232,7.50469484 81.3285599,6.40485534" id="Twitter"></path>
                        </g>
                    </g>
                </g>
            </g>
        </g>
    </g>
</svg>